<svg id="Layer_1" data-name="Layer 1" xmlns="http://www.w3.org/2000/svg" viewBox="0 0 216 216"><defs><style>.cls-2{fill:#00beda}</style></defs><g id="logo"><path d="M172.25 74c1.65-7-2.79-12.72-4.2-13.14s-6.8 3.25-8.26 9.08h-.61a12.35 12.35 0 0 0-1.52.11c-2.28-7.41-10.65-10.38-12.14-9.43s-5.19 10.46 2.06 17.9c-2.25 4.64-3.22 9.82-4.33 11.76-2.2 3.85-18.14 3.85-32.43 18s-16.49 38.08-16.49 38.08c0-59.83-2.94-94.28-21.7-113-7.3-7.29-17.08-10.77-28.14-11h-.62a44.6 44.6 0 0 0-4.5.23C17.53 24.71 1.26 42.35.48 64.56c-.32 9.14 1.84 17.62 6.69 24.6l.08-.08.06.08 11.78-11.79c2.06.22 16.73 3 29.2 41.13C67.49 177.19 108 216 108 216c40.39-35.8 56.44-91.19 56.44-96.47s3-6.91 5.5-6.91h7.93c4.4 0 12.64-3.09 12.64-8 0-14.19-8.81-25.04-18.26-30.62z" fill="#243f52"/><path class="cls-2" d="M137.63 82.21a6.2 6.2 0 0 1-3.93 4l-.2.06c-6.71 2.26-17.93 6-28.31 16.31a49.92 49.92 0 0 0-3.6 4C99.8 68.05 94.25 44.42 79.3 28.69L108 0l54.4 54.39a18.89 18.89 0 0 0-4.1 3c-3.94-3.26-8.58-4.95-12-4.95a9.28 9.28 0 0 0-5.1 1.42c-4.52 2.87-5.62 9.5-5.85 11.46a22.68 22.68 0 0 0 1.91 12.2 6.38 6.38 0 0 1 .34 4.68z"/><path d="M152.64 171.35L216 108l-21.86-21.87a40.91 40.91 0 0 1 4.37 18.44c0 10.33-12.2 16-20.64 16h-5.5c-.59 5.82-5.34 21.46-13.78 39.14-1.71 3.63-3.7 7.54-5.95 11.64z" fill="#ffaf00"/><path class="cls-2" d="M40.69 121C33.16 98 25.3 89.74 21.15 86.84L0 108l64.43 64.42A253 253 0 0 1 40.69 121z"/></g></svg>