<!DOCTYPE svg PUBLIC "-//W3C//DTD SVG 20010904//EN" "http://www.w3.org/TR/2001/REC-SVG-20010904/DTD/svg10.dtd">
<svg version="1.0" xmlns="http://www.w3.org/2000/svg"  height="16px" viewBox="0 0 4220 5370" preserveAspectRatio="xMidYMid meet">
<g id="layer101" fill="#0c0c0c" stroke="none">
 <path d="M0 2685 l0 -2685 2110 0 2110 0 0 2685 0 2685 -2110 0 -2110 0 0 -2685z"/>
 </g>
<g id="layer102" fill="#323232" stroke="none">
 <path d="M0 2685 l0 -2685 2110 0 2110 0 0 2685 0 2685 -2110 0 -2110 0 0 -2685z m1860 1355 l0 -50 -45 0 -45 0 0 -50 0 -50 -100 0 -100 0 0 50 0 50 50 0 50 0 0 50 0 50 95 0 95 0 0 -50z m1080 -145 l0 -95 -45 0 -45 0 0 95 0 95 45 0 45 0 0 -95z m-2250 -985 l0 -390 45 0 45 0 0 -395 0 -395 50 0 50 0 0 -50 0 -50 50 0 50 0 0 -50 0 -50 100 0 100 0 0 -45 0 -45 95 0 95 0 0 -50 0 -50 295 0 295 0 0 -50 0 -50 150 0 150 0 0 -50 0 -50 440 0 440 0 0 50 0 50 50 0 50 0 0 100 0 100 50 0 50 0 0 95 0 95 45 0 45 0 0 150 0 150 50 0 50 0 0 145 0 145 50 0 50 0 0 245 0 245 50 0 50 0 0 200 0 200 50 0 50 0 0 -345 0 -345 50 0 50 0 0 -150 0 -150 -50 0 -50 0 0 -145 0 -145 50 0 50 0 0 -50 0 -50 -50 0 -50 0 0 -245 0 -245 -50 0 -50 0 0 -100 0 -100 -50 0 -50 0 0 -195 0 -195 50 0 50 0 0 -150 0 -150 -50 0 -50 0 0 50 0 50 -50 0 -50 0 0 -50 0 -50 -95 0 -95 0 0 50 0 50 -200 0 -200 0 0 -50 0 -50 -45 0 -45 0 0 -95 0 -95 -50 0 -50 0 0 95 0 95 -50 0 -50 0 0 -45 0 -45 -145 0 -145 0 0 -50 0 -50 -100 0 -100 0 0 50 0 50 -50 0 -50 0 0 -50 0 -50 -50 0 -50 0 0 50 0 50 -145 0 -145 0 0 45 0 45 -100 0 -100 0 0 -45 0 -45 -50 0 -50 0 0 45 0 45 -45 0 -45 0 0 50 0 50 -150 0 -150 0 0 50 0 50 -50 0 -50 0 0 50 0 50 -50 0 -50 0 0 50 0 50 -45 0 -45 0 0 50 0 50 -50 0 -50 0 0 45 0 45 -50 0 -50 0 0 50 0 50 -50 0 -50 0 0 50 0 50 50 0 50 0 0 50 0 50 -50 0 -50 0 0 50 0 50 -50 0 -50 0 0 440 0 440 50 0 50 0 0 245 0 245 50 0 50 0 0 100 0 100 50 0 50 0 0 195 0 195 50 0 50 0 0 -390z m680 -50 l0 -50 -95 0 -95 0 0 50 0 50 95 0 95 0 0 -50z m400 -100 l0 -50 45 0 45 0 0 -45 0 -45 -45 0 -45 0 0 45 0 45 -50 0 -50 0 0 -145 0 -145 -100 0 -100 0 0 50 0 50 -195 0 -195 0 0 50 0 50 -50 0 -50 0 0 45 0 45 100 0 100 0 0 -45 0 -45 195 0 195 0 0 45 0 45 -50 0 -50 0 0 50 0 50 150 0 150 0 0 -50z m980 -145 l0 -95 -50 0 -50 0 0 50 0 50 -50 0 -50 0 0 45 0 45 100 0 100 0 0 -95z m390 50 l0 -45 -145 0 -145 0 0 45 0 45 145 0 145 0 0 -45z m-100 -295 l0 -50 50 0 50 0 0 50 0 50 50 0 50 0 0 -50 0 -50 -50 0 -50 0 0 -50 0 -50 -50 0 -50 0 0 50 0 50 -195 0 -195 0 0 50 0 50 195 0 195 0 0 -50z m200 -2065 l0 -45 -50 0 -50 0 0 45 0 45 50 0 50 0 0 -45z"/>
 <path d="M590 1140 l0 -100 95 0 95 0 0 -50 0 -50 100 0 100 0 0 -45 0 -45 50 0 50 0 0 95 0 95 -100 0 -100 0 0 50 0 50 -95 0 -95 0 0 50 0 50 -50 0 -50 0 0 -100z"/>
 <path d="M1470 500 l0 -50 50 0 50 0 0 50 0 50 -50 0 -50 0 0 -50z"/>
 <path d="M3430 500 l0 -50 50 0 50 0 0 50 0 50 -50 0 -50 0 0 -50z"/>
 </g>
<g id="layer103" fill="#535353" stroke="none">
 <path d="M0 2685 l0 -2685 901 0 c515 0 898 4 895 9 -3 5 -25 6 -50 4 -53 -6 -71 12 -18 20 50 7 88 2 85 -12 -2 -6 16 -3 45 8 26 11 59 21 72 24 14 2 5 5 -22 6 l-48 1 0 100 0 100 -95 0 -95 0 0 -50 0 -50 -50 0 -50 0 0 50 0 50 -145 0 -145 0 0 45 0 45 -50 0 -50 0 0 -45 0 -45 -50 0 -50 0 0 45 0 45 -50 0 -50 0 0 50 0 50 -50 0 -50 0 0 50 0 50 -95 0 -95 0 0 100 0 100 -100 0 -100 0 0 50 0 50 50 0 50 0 0 45 0 45 -100 0 -100 0 0 100 0 100 -50 0 -50 0 0 50 0 50 -45 0 -45 0 0 195 0 195 45 0 45 0 0 50 0 50 -45 0 -45 0 0 50 0 50 45 0 45 0 0 440 0 440 50 0 50 0 0 50 0 50 50 0 50 0 0 100 0 100 50 0 50 0 0 145 0 145 50 0 50 0 0 -340 0 -340 45 0 45 0 0 -345 0 -345 50 0 50 0 0 -100 0 -100 50 0 50 0 0 -50 0 -50 50 0 50 0 0 -50 0 -50 195 0 195 0 0 -45 0 -45 150 0 150 0 0 -50 0 -50 195 0 195 0 0 -50 0 -50 490 0 490 0 0 50 0 50 50 0 50 0 0 95 0 95 50 0 50 0 0 100 0 100 45 0 45 0 0 195 0 195 50 0 50 0 0 100 0 100 50 0 50 0 0 245 0 245 50 0 50 0 0 150 0 150 50 0 50 0 0 -295 0 -295 50 0 50 0 0 -50 0 -50 45 0 45 0 0 145 0 145 50 0 50 0 0 50 0 50 50 0 50 0 0 1280 0 1280 -2110 0 -2110 0 0 -2685z m1960 1355 l0 -50 -50 0 -50 0 0 -50 0 -50 -195 0 -195 0 0 50 0 50 100 0 100 0 0 50 0 50 145 0 145 0 0 -50z m690 0 l0 -50 -195 0 -195 0 0 50 0 50 195 0 195 0 0 -50z m290 -100 l0 -50 100 0 100 0 0 -45 0 -45 -295 0 -295 0 0 45 0 45 150 0 150 0 0 50 0 50 45 0 45 0 0 -50z m200 -390 l0 -50 -50 0 -50 0 0 50 0 50 50 0 50 0 0 -50z m-2550 -150 l0 -100 -50 0 -50 0 0 100 0 100 50 0 50 0 0 -100z m1080 50 l0 -50 50 0 50 0 0 -50 0 -50 -50 0 -50 0 0 50 0 50 -50 0 -50 0 0 50 0 50 50 0 50 0 0 -50z m1270 -100 l0 -50 -45 0 -45 0 0 50 0 50 45 0 45 0 0 -50z m-1370 -490 l0 -50 50 0 50 0 0 50 0 50 95 0 95 0 0 -50 0 -50 50 0 50 0 0 -95 0 -95 -50 0 -50 0 0 -100 0 -100 -245 0 -245 0 0 50 0 50 -145 0 -145 0 0 50 0 50 -50 0 -50 0 0 95 0 95 50 0 50 0 0 50 0 50 245 0 245 0 0 -50z m1180 -145 l0 -95 50 0 50 0 0 45 0 45 145 0 145 0 0 -45 0 -45 -145 0 -145 0 0 -100 0 -100 195 0 195 0 0 50 0 50 95 0 95 0 0 -50 0 -50 -45 0 -45 0 0 -50 0 -50 -50 0 -50 0 0 -50 0 -50 -150 0 -150 0 0 50 0 50 -145 0 -145 0 0 -50 0 -50 -50 0 -50 0 0 50 0 50 -50 0 -50 0 0 195 0 195 100 0 100 0 0 50 0 50 50 0 50 0 0 -95z m-2060 -2215 l0 -50 -50 0 -50 0 0 50 0 50 50 0 50 0 0 -50z m990 -474 c0 -3 -5 -8 -12 -12 -7 -4 -8 -3 -4 4 7 12 16 16 16 8z"/>
 <path d="M1080 2760 l0 -50 50 0 50 0 0 -45 0 -45 145 0 145 0 0 45 0 45 -50 0 -50 0 0 50 0 50 -145 0 -145 0 0 -50z"/>
 <path d="M3730 990 l0 -50 50 0 50 0 0 50 0 50 -50 0 -50 0 0 -50z"/>
 <path d="M3240 305 l0 -45 50 0 50 0 0 45 0 45 -50 0 -50 0 0 -45z"/>
 <path d="M3040 210 l0 -50 50 0 50 0 0 50 0 50 -50 0 -50 0 0 -50z"/>
 <path d="M2062 105 c2 -43 0 -55 -11 -55 -11 0 -12 -3 -4 -11 7 -7 21 -6 48 5 21 9 66 16 101 16 l64 0 0 50 0 50 -101 0 -101 0 4 -55z"/>
 <path d="M1945 39 c-16 -7 -14 -8 8 -4 16 3 35 1 42 -5 8 -7 22 -10 32 -7 13 3 11 5 -7 7 -23 1 -23 2 -5 9 16 7 13 9 -15 9 -19 0 -44 -4 -55 -9z"/>
 <path d="M2183 23 c4 -3 10 -3 14 0 3 4 0 7 -7 7 -7 0 -10 -3 -7 -7z"/>
 </g>
<g id="layer104" fill="#707070" stroke="none">
 <path d="M0 2685 l0 -2685 738 0 c405 0 731 4 724 9 -8 4 -14 12 -14 17 0 5 -5 8 -11 6 -7 -1 -2 6 11 17 17 15 22 30 22 65 l0 46 -95 0 -95 0 0 50 0 50 -100 0 -100 0 0 45 0 45 -50 0 -50 0 0 50 0 50 -100 0 -100 0 0 50 0 50 -45 0 -45 0 0 50 0 50 -100 0 -100 0 0 50 0 50 -50 0 -50 0 0 95 0 95 -95 0 -95 0 0 200 0 200 -50 0 -50 0 0 50 0 50 50 0 50 0 0 245 0 245 45 0 45 0 0 50 0 50 -45 0 -45 0 0 45 0 45 45 0 45 0 0 545 0 545 50 0 50 0 0 -100 0 -100 100 0 100 0 0 100 0 100 -50 0 -50 0 0 145 0 145 100 0 100 0 0 -50 0 -50 -50 0 -50 0 0 -50 0 -50 50 0 50 0 0 50 0 50 45 0 45 0 0 -390 0 -390 50 0 50 0 0 95 0 95 100 0 100 0 0 50 0 50 50 0 50 0 0 100 0 100 95 0 95 0 0 -50 0 -50 200 0 200 0 0 50 0 50 95 0 95 0 0 -50 0 -50 50 0 50 0 0 -195 0 -195 -50 0 -50 0 0 -100 0 -100 -440 0 -440 0 0 50 0 50 -50 0 -50 0 0 -100 0 -100 -50 0 -50 0 0 -50 0 -50 50 0 50 0 0 -50 0 -50 -50 0 -50 0 0 -95 0 -95 50 0 50 0 0 -50 0 -50 50 0 50 0 0 -50 0 -50 50 0 50 0 0 -50 0 -50 195 0 195 0 0 -50 0 -50 100 0 100 0 0 -45 0 -45 145 0 145 0 0 -50 0 -50 540 0 540 0 0 50 0 50 50 0 50 0 0 95 0 95 50 0 50 0 0 200 0 200 45 0 45 0 0 45 0 45 50 0 50 0 0 100 0 100 50 0 50 0 0 245 0 245 50 0 50 0 0 200 0 200 100 0 100 0 0 -100 0 -100 -50 0 -50 0 0 -195 0 -195 50 0 50 0 0 95 0 95 95 0 95 0 0 50 0 50 -50 0 -50 0 0 195 0 195 50 0 50 0 0 50 0 50 50 0 50 0 0 985 0 985 -2110 0 -2110 0 0 -2685z m2550 2435 l0 -50 100 0 100 0 0 -45 0 -45 95 0 95 0 0 -50 0 -50 100 0 100 0 0 -50 0 -50 50 0 50 0 0 -50 0 -50 50 0 50 0 0 -50 0 -50 45 0 45 0 0 -95 0 -95 50 0 50 0 0 -50 0 -50 -50 0 -50 0 0 50 0 50 -45 0 -45 0 0 95 0 95 -100 0 -100 0 0 50 0 50 -50 0 -50 0 0 50 0 50 -50 0 -50 0 0 50 0 50 -95 0 -95 0 0 50 0 50 -150 0 -150 0 0 -50 0 -50 -45 0 -45 0 0 50 0 50 -295 0 -295 0 0 45 0 45 95 0 95 0 0 50 0 50 295 0 295 0 0 -50z m-880 -190 l0 -50 -50 0 -50 0 0 50 0 50 50 0 50 0 0 -50z m-200 -100 l0 -50 -50 0 -50 0 0 -50 0 -50 -45 0 -45 0 0 50 0 50 45 0 45 0 0 50 0 50 50 0 50 0 0 -50z m490 -690 l0 -50 100 0 100 0 0 50 0 50 50 0 50 0 0 -50 0 -50 295 0 295 0 0 -50 0 -50 45 0 45 0 0 -50 0 -50 100 0 100 0 0 -45 0 -45 -685 0 -685 0 0 45 0 45 -150 0 -150 0 0 50 0 50 100 0 100 0 0 50 0 50 50 0 50 0 0 50 0 50 95 0 95 0 0 -50z m-590 -345 l0 -95 50 0 50 0 0 -50 0 -50 50 0 50 0 0 -50 0 -50 100 0 100 0 0 -50 0 -50 45 0 45 0 0 -50 0 -50 50 0 50 0 0 -45 0 -45 50 0 50 0 0 -50 0 -50 -50 0 -50 0 0 50 0 50 -95 0 -95 0 0 45 0 45 -50 0 -50 0 0 50 0 50 -50 0 -50 0 0 50 0 50 -50 0 -50 0 0 50 0 50 -50 0 -50 0 0 50 0 50 -45 0 -45 0 0 95 0 95 45 0 45 0 0 -95z m-590 -45 l0 -50 -45 0 -45 0 0 50 0 50 45 0 45 0 0 -50z m2560 -50 l0 -100 -50 0 -50 0 0 -50 0 -50 -50 0 -50 0 0 -50 0 -50 -50 0 -50 0 0 -50 0 -50 -95 0 -95 0 0 -45 0 -45 -50 0 -50 0 0 45 0 45 50 0 50 0 0 50 0 50 45 0 45 0 0 50 0 50 50 0 50 0 0 50 0 50 50 0 50 0 0 50 0 50 50 0 50 0 0 50 0 50 50 0 50 0 0 -100z m490 0 l0 -100 -50 0 -50 0 0 100 0 100 50 0 50 0 0 -100z m-1470 -50 l0 -50 145 0 145 0 0 -50 0 -50 -195 0 -195 0 0 50 0 50 -50 0 -50 0 0 -50 0 -50 -150 0 -150 0 0 50 0 50 150 0 150 0 0 50 0 50 100 0 100 0 0 -50z m-1870 -100 l0 -50 -50 0 -50 0 0 50 0 50 50 0 50 0 0 -50z m2450 -740 l0 -100 200 0 200 0 0 -45 0 -45 -50 0 -50 0 0 -50 0 -50 95 0 95 0 0 -100 0 -100 -45 0 -45 0 0 -50 0 -50 -395 0 -395 0 0 50 0 50 -95 0 -95 0 0 195 0 195 95 0 95 0 0 100 0 100 195 0 195 0 0 -100z m-2650 -2210 l0 -50 -45 0 -45 0 0 50 0 50 45 0 45 0 0 -50z m400 -100 l0 -50 -100 0 -100 0 0 50 0 50 100 0 100 0 0 -50z m-600 -454 c0 -3 -5 -8 -12 -12 -7 -4 -8 -3 -4 4 7 12 16 16 16 8z m90 0 c0 -2 -8 -10 -17 -17 -16 -13 -17 -12 -4 4 13 16 21 21 21 13z"/>
 <path d="M2160 4040 l0 -50 -50 0 -50 0 0 -50 0 -50 345 0 345 0 0 50 0 50 -245 0 -245 0 0 50 0 50 -50 0 -50 0 0 -50z"/>
 <path d="M2940 2520 l0 -100 50 0 50 0 0 100 0 100 -50 0 -50 0 0 -100z"/>
 <path d="M3930 2470 l0 -50 45 0 45 0 0 50 0 50 -45 0 -45 0 0 -50z"/>
 <path d="M1770 210 l0 -50 45 0 45 0 0 50 0 50 -45 0 -45 0 0 -50z"/>
 <path d="M2093 53 c4 -3 10 -3 14 0 3 4 0 7 -7 7 -7 0 -10 -3 -7 -7z"/>
 <path d="M1498 3 c7 -3 16 -2 19 1 4 3 -2 6 -13 5 -11 0 -14 -3 -6 -6z"/>
 </g>
<g id="layer105" fill="#8b8b8b" stroke="none">
 <path d="M590 4730 l0 -640 50 0 50 0 0 -100 0 -100 45 0 45 0 0 50 0 50 50 0 50 0 0 150 0 150 50 0 50 0 0 95 0 95 50 0 50 0 0 200 0 200 50 0 50 0 0 -50 0 -50 50 0 50 0 0 50 0 50 95 0 95 0 0 50 0 50 50 0 50 0 0 45 0 45 100 0 100 0 0 50 0 50 45 0 45 0 0 50 0 50 395 0 395 0 0 -50 0 -50 145 0 145 0 0 -50 0 -50 50 0 50 0 0 -45 0 -45 50 0 50 0 0 -50 0 -50 50 0 50 0 0 -50 0 -50 50 0 50 0 0 -100 0 -100 45 0 45 0 0 -50 0 -50 50 0 50 0 0 -95 0 -95 50 0 50 0 0 -100 0 -100 -145 0 -145 0 0 50 0 50 -50 0 -50 0 0 50 0 50 -50 0 -50 0 0 50 0 50 -100 0 -100 0 0 95 0 95 -45 0 -45 0 0 100 0 100 -395 0 -395 0 0 -195 0 -195 -50 0 -50 0 0 45 0 45 -95 0 -95 0 0 -95 0 -95 -50 0 -50 0 0 50 0 50 -50 0 -50 0 0 -100 0 -100 50 0 50 0 0 -50 0 -50 50 0 50 0 0 50 0 50 295 0 295 0 0 50 0 50 45 0 45 0 0 -100 0 -100 100 0 100 0 0 50 0 50 50 0 50 0 0 -50 0 -50 50 0 50 0 0 -50 0 -50 95 0 95 0 0 150 0 150 50 0 50 0 0 -150 0 -150 50 0 50 0 0 -95 0 -95 50 0 50 0 0 45 0 45 45 0 45 0 0 -95 0 -95 50 0 50 0 0 -50 0 -50 50 0 50 0 0 -50 0 -50 -145 0 -145 0 0 -50 0 -50 -100 0 -100 0 0 -50 0 -50 -50 0 -50 0 0 -95 0 -95 50 0 50 0 0 -150 0 -150 245 0 245 0 0 150 0 150 50 0 50 0 0 50 0 50 -50 0 -50 0 0 95 0 95 50 0 50 0 0 -50 0 -50 50 0 50 0 0 -45 0 -45 50 0 50 0 0 145 0 145 -50 0 -50 0 0 -50 0 -50 -50 0 -50 0 0 245 0 245 100 0 100 0 0 -95 0 -95 45 0 45 0 0 50 0 50 100 0 100 0 0 785 0 785 -1470 0 -1470 0 0 -100 0 -100 -50 0 -50 0 0 100 0 100 -295 0 -295 0 0 -640z m2260 -200 l0 -50 -100 0 -100 0 0 50 0 50 100 0 100 0 0 -50z m-490 -190 l0 -50 -100 0 -100 0 0 50 0 50 100 0 100 0 0 -50z m1370 -350 l0 -100 -50 0 -50 0 0 100 0 100 50 0 50 0 0 -100z"/>
 <path d="M1280 4340 l0 -50 45 0 45 0 0 50 0 50 -45 0 -45 0 0 -50z"/>
 <path d="M1080 4040 l0 -50 50 0 50 0 0 50 0 50 -50 0 -50 0 0 -50z"/>
 <path d="M1280 4040 l0 -50 45 0 45 0 0 50 0 50 -45 0 -45 0 0 -50z"/>
 <path d="M2060 3940 l0 -50 195 0 195 0 0 50 0 50 -195 0 -195 0 0 -50z"/>
 <path d="M2550 3940 l0 -50 50 0 50 0 0 50 0 50 -50 0 -50 0 0 -50z"/>
 <path d="M2450 3750 l0 -50 50 0 50 0 0 -50 0 -50 100 0 100 0 0 100 0 100 -150 0 -150 0 0 -50z"/>
 <path d="M2850 3750 l0 -50 45 0 45 0 0 50 0 50 -45 0 -45 0 0 -50z"/>
 <path d="M1080 3550 l0 -50 -50 0 -50 0 0 -145 0 -145 50 0 50 0 0 -50 0 -50 245 0 245 0 0 50 0 50 100 0 100 0 0 45 0 45 -100 0 -100 0 0 50 0 50 -50 0 -50 0 0 50 0 50 -95 0 -95 0 0 50 0 50 -100 0 -100 0 0 -50z"/>
 <path d="M2060 3350 l0 -50 50 0 50 0 0 -95 0 -95 50 0 50 0 0 -50 0 -50 -50 0 -50 0 0 -150 0 -150 -50 0 -50 0 0 -45 0 -45 50 0 50 0 0 -100 0 -100 -100 0 -100 0 0 -50 0 -50 -195 0 -195 0 0 50 0 50 -100 0 -100 0 0 -245 0 -245 -45 0 -45 0 0 -50 0 -50 45 0 45 0 0 -50 0 -50 100 0 100 0 0 50 0 50 50 0 50 0 0 -50 0 -50 95 0 95 0 0 -50 0 -50 50 0 50 0 0 -50 0 -50 100 0 100 0 0 -45 0 -45 50 0 50 0 0 45 0 45 50 0 50 0 0 -45 0 -45 195 0 195 0 0 45 0 45 95 0 95 0 0 50 0 50 50 0 50 0 0 50 0 50 50 0 50 0 0 195 0 195 -50 0 -50 0 0 50 0 50 -340 0 -340 0 0 100 0 100 -50 0 -50 0 0 100 0 100 50 0 50 0 0 295 0 295 45 0 45 0 0 95 0 95 -195 0 -195 0 0 -50z m200 -1770 l0 -50 -50 0 -50 0 0 50 0 50 50 0 50 0 0 -50z"/>
 <path d="M2650 3160 l0 -50 100 0 100 0 0 50 0 50 -100 0 -100 0 0 -50z"/>
 <path d="M3830 2765 l0 -145 50 0 50 0 0 145 0 145 -50 0 -50 0 0 -145z"/>
 <path d="M980 305 l0 -45 50 0 50 0 0 45 0 45 -50 0 -50 0 0 -45z"/>
 </g>
<g id="layer106" fill="#aaaaaa" stroke="none">
 <path d="M980 5320 l0 -50 -50 0 -50 0 0 -100 0 -100 50 0 50 0 0 -95 0 -95 50 0 50 0 0 95 0 95 50 0 50 0 0 50 0 50 -50 0 -50 0 0 100 0 100 -50 0 -50 0 0 -50z"/>
 <path d="M3140 5320 l0 -50 50 0 50 0 0 50 0 50 -50 0 -50 0 0 -50z"/>
 <path d="M3530 5270 l0 -100 -50 0 -50 0 0 -345 0 -345 50 0 50 0 0 -45 0 -45 50 0 50 0 0 -100 0 -100 50 0 50 0 0 -50 0 -50 50 0 50 0 0 -50 0 -50 195 0 195 0 0 690 0 690 -345 0 -345 0 0 -100z"/>
 <path d="M2160 3940 l0 -50 145 0 145 0 0 50 0 50 -145 0 -145 0 0 -50z"/>
 <path d="M1180 3450 l0 -50 50 0 50 0 0 50 0 50 -50 0 -50 0 0 -50z"/>
 <path d="M2260 3255 l0 -45 50 0 50 0 0 45 0 45 -50 0 -50 0 0 -45z"/>
 <path d="M3240 3205 l0 -95 50 0 50 0 0 95 0 95 -50 0 -50 0 0 -95z"/>
 <path d="M2650 2025 l0 -95 -50 0 -50 0 0 -50 0 -50 -50 0 -50 0 0 -100 0 -100 50 0 50 0 0 -50 0 -50 100 0 100 0 0 150 0 150 50 0 50 0 0 145 0 145 -100 0 -100 0 0 -95z"/>
 </g>

</svg>